<svg width="800" height="800" viewBox="0 0 800 800" fill="none" xmlns="http://www.w3.org/2000/svg">
<path d="M421.863 93.1113C581.173 93.1115 715.356 242.672 715.356 433.823C715.356 624.975 581.173 774.535 421.863 774.535C262.552 774.535 128.37 624.975 128.37 433.823C128.37 242.672 262.552 93.1113 421.863 93.1113Z" stroke="black" stroke-width="44"/>
<path d="M304.68 235H374.93L375.18 487.25C375.013 504.583 371.68 520.417 365.18 534.75C358.847 548.917 350.097 561.167 338.93 571.5C327.763 581.833 314.597 589.833 299.43 595.5C284.43 601.167 268.263 604 250.93 604C232.597 604 215.93 601.667 200.93 597C185.93 592.333 173.097 585.333 162.43 576C151.597 566.833 143.18 555.25 137.18 541.25C131.18 527.25 128.097 510.833 127.93 492H198.43C198.43 500.667 199.263 508.25 200.93 514.75C202.597 521.25 205.097 526.75 208.43 531.25C212.763 536.75 218.43 540.833 225.43 543.5C232.43 546.167 240.93 547.5 250.93 547.5C258.93 547.5 266.263 546 272.93 543C279.597 539.833 285.263 535.583 289.93 530.25C294.597 524.917 298.18 518.583 300.68 511.25C303.347 503.75 304.68 495.75 304.68 487.25V235ZM440.57 235H651.07V291.75H580.07V542.5H651.07V599H440.57V542.5H509.82V291.75H440.57V235Z" fill="black"/>
</svg>
